<svg id="Layer_1" data-name="Layer 1" xmlns="http://www.w3.org/2000/svg" xmlns:xlink="http://www.w3.org/1999/xlink" viewBox="0 0 1929.06 1153.66"><defs><style>.cls-1{fill:#ecf3ff;}.cls-2{fill:url(#radial-gradient);}</style><radialGradient id="radial-gradient" cx="964.53" cy="476.53" r="1013.57" gradientUnits="userSpaceOnUse"><stop offset="0.35" stop-color="#1c5ccb"/><stop offset="0.8" stop-color="#b5811a"/></radialGradient></defs><path class="cls-1" d="M0,688.18s128.71-116,140.2,137.47S297.37,709,361,879.77,427.88,1209.94,526.56,1026s44.62,154,301,126c2.37-1.16,428.92.78,431.46,0,224.77,22.13,150.22-313.35,272-164s59.24-366.49,191.06-244.33,126.64-176.4,201.34-123.47c-2.2,2.52,5.66-620.17,5.66-620.17H0Z"/><path class="cls-2" d="M0,568.51s128.71-95.8,140.2,113.57,157.17-96.34,220.8,44.7,66.88,272.76,165.56,120.79,44.62,127.2,301,104.11c2.37-1,428.92.65,431.46,0,224.77,18.28,150.22-258.86,272-135.51s59.24-302.76,191.06-201.84,126.64-145.73,201.34-102c-2.2,2.08,5.66-512.33,5.66-512.33H0Z"/></svg>